PathFileType	4	(X/Y/Z)	c:/Users/goper/Files/vsCode/490R/osim_files/A01/A01_PWS_04.trc
DataRate	CameraRate	NumFrames	NumMarkers	Units                	OrigDataRate	OrigDataStartFrame	OrigNumFrames
120.00	120.00	4	36	mm	120.0	1037	1184
                Frame#	Time	Mobility_markerset:LPSIS			Mobility_markerset:LASIS			Mobility_markerset:LTH1			Mobility_markerset:LTH2			Mobility_markerset:LTH3			Mobility_markerset:LTH4			Mobility_markerset:LLFE			Mobility_markerset:LMFE			Mobility_markerset:LSH1			Mobility_markerset:LSH2			Mobility_markerset:LSH3			Mobility_markerset:LSH4			Mobility_markerset:LLMAL			Mobility_markerset:LMMAL			Mobility_markerset:LCAL			Mobility_markerset:LMTP5			Mobility_markerset:LTOE			Mobility_markerset:LMTP1			Mobility_markerset:RPSIS			Mobility_markerset:RASIS			Mobility_markerset:RTH1			Mobility_markerset:RTH2			Mobility_markerset:RTH3			Mobility_markerset:RTH4			Mobility_markerset:RLFE			Mobility_markerset:RMFE			Mobility_markerset:RSH1			Mobility_markerset:RSH2			Mobility_markerset:RSH3			Mobility_markerset:RSH4			Mobility_markerset:RLMAL			Mobility_markerset:RMMAL			Mobility_markerset:RCAL			Mobility_markerset:RMTP1			Mobility_markerset:RTOE			Mobility_markerset:RMTP5		
		X1	Y1	Z1	X2	Y2	Z2	X3	Y3	Z3	X4	Y4	Z4	X5	Y5	Z5	X6	Y6	Z6	X7	Y7	Z7	X8	Y8	Z8	X9	Y9	Z9	X10	Y10	Z10	X11	Y11	Z11	X12	Y12	Z12	X13	Y13	Z13	X14	Y14	Z14	X15	Y15	Z15	X16	Y16	Z16	X17	Y17	Z17	X18	Y18	Z18	X19	Y19	Z19	X20	Y20	Z20	X21	Y21	Z21	X22	Y22	Z22	X23	Y23	Z23	X24	Y24	Z24	X25	Y25	Z25	X26	Y26	Z26	X27	Y27	Z27	X28	Y28	Z28	X29	Y29	Z29	X30	Y30	Z30	X31	Y31	Z31	X32	Y32	Z32	X33	Y33	Z33	X34	Y34	Z34	X35	Y35	Z35	X36	Y36	Z36

1037	8.63333	0.00000	0.00000	0.00000	-4333.94141	53.63476	841.57751	0.00000	0.00000	0.00000	-1333.54553	1331.82739	3077.52124	0.00000	0.00000	0.00000	0.00000	0.00000	0.00000	0.00000	0.00000	0.00000	-4278.08838	552.37262	825.04944	-3688.23120	749.45972	609.33307	0.00000	0.00000	0.00000	0.00000	0.00000	0.00000	0.00000	0.00000	0.00000	-4220.43164	95.61996	707.56738	-4303.56934	101.06258	685.23859	-4250.81250	72.95296	622.89575	0.00000	0.00000	0.00000	-4303.14453	63.34182	862.92578	0.00000	0.00000	0.00000	-4311.16895	1057.60938	716.98578	0.00000	0.00000	0.00000	-4440.92480	691.60132	944.73029	-4435.76514	652.19177	963.53479	-4418.91797	711.81342	999.56860	-4418.47266	670.44757	1009.38666	-4392.59619	532.28790	1043.05444	0.00000	0.00000	0.00000	-4452.32764	340.16391	970.64972	-4458.75195	296.03647	977.14954	-4442.20312	341.89600	1030.71692	-4449.70508	297.20441	1030.01709	-4451.97705	114.56950	1007.88269	0.00000	0.00000	0.00000	-4414.18945	77.57684	950.84552	0.00000	0.00000	0.00000	-4385.58496	94.26186	1187.02075	-4458.20508	59.81883	1148.44836
1038	8.64167	0.00000	0.00000	0.00000	-4333.97803	53.59445	841.65918	-1333.23730	1331.83679	3077.63574	0.00000	0.00000	0.00000	0.00000	0.00000	0.00000	0.00000	0.00000	0.00000	0.00000	0.00000	0.00000	-4278.03613	551.98364	827.15265	0.00000	0.00000	0.00000	0.00000	0.00000	0.00000	-4308.22656	1004.80426	959.60785	0.00000	0.00000	0.00000	-4220.59961	95.81475	707.71191	-4303.86816	101.23839	685.47687	-4250.95459	73.22533	623.03033	0.00000	0.00000	0.00000	-4303.31738	63.12430	863.10455	0.00000	0.00000	0.00000	-4314.25781	1057.66150	723.60742	0.00000	0.00000	0.00000	-4439.78906	691.15161	951.62787	-4434.78027	651.64886	970.15594	-4416.83057	710.86664	1006.20642	-4416.60059	669.58356	1015.78076	-4389.90576	532.56781	1050.63855	0.00000	0.00000	0.00000	-4450.71143	338.55020	984.74689	-4456.80225	294.58884	992.65070	-4438.94873	342.00208	1044.44409	-4446.25000	297.28244	1045.16663	-4448.43555	113.80410	1028.53418	0.00000	0.00000	0.00000	-4412.25049	75.29842	971.38452	0.00000	0.00000	0.00000	-4375.82373	99.15096	1206.71143	-4449.77930	62.82179	1170.78625
1039	8.65000	0.00000	0.00000	0.00000	-4334.01221	53.54538	841.75635	0.00000	0.00000	0.00000	-1332.95728	1331.89648	3077.70337	0.00000	0.00000	0.00000	0.00000	0.00000	0.00000	0.00000	0.00000	0.00000	-4278.06494	551.69525	829.19269	-4306.83350	1003.42645	965.45984	0.00000	0.00000	0.00000	0.00000	0.00000	0.00000	0.00000	0.00000	0.00000	-4220.75684	95.98136	707.82159	-4304.16113	101.43459	685.71838	-4251.24854	73.61247	623.19623	0.00000	0.00000	0.00000	-4303.27197	63.03937	863.16364	0.00000	0.00000	0.00000	-4317.18066	1057.65698	730.30200	0.00000	0.00000	0.00000	-4438.77490	690.67719	958.62085	-4433.71582	651.12933	977.00580	-4414.87256	709.99847	1012.88452	-4414.65527	668.81219	1022.36621	-4387.22998	532.93652	1057.94080	0.00000	0.00000	0.00000	-4448.69727	336.99185	998.33832	-4454.45557	293.24915	1007.54858	-4435.51758	342.13046	1057.56555	-4442.57715	297.35065	1059.68542	-4444.32910	113.23689	1048.44507	0.00000	0.00000	0.00000	-4409.68799	73.24126	991.30487	0.00000	0.00000	0.00000	-4366.02881	103.37267	1223.17505	-4440.90918	65.98342	1192.06067
1040	8.65833	0.00000	0.00000	0.00000	-4334.05957	53.51873	841.84991	-100.66951	1532.11401	2262.94727	0.00000	0.00000	0.00000	0.00000	0.00000	0.00000	0.00000	0.00000	0.00000	0.00000	0.00000	0.00000	-4278.10547	551.42462	831.27570	0.00000	0.00000	0.00000	0.00000	0.00000	0.00000	-4305.53955	1002.26422	971.15466	0.00000	0.00000	0.00000	-4220.93652	96.18398	707.94568	-4304.46240	101.62433	685.94543	-4251.53369	73.96673	623.34308	0.00000	0.00000	0.00000	-4302.90234	62.45593	863.20941	0.00000	0.00000	0.00000	-4320.02344	1057.63171	736.98383	0.00000	0.00000	0.00000	-4437.69287	690.12952	965.89343	-4432.38135	650.54639	984.17023	0.00000	0.00000	0.00000	-4412.61816	668.22791	1029.20312	-4384.46191	533.14062	1064.96692	0.00000	0.00000	0.00000	-4446.38672	335.45737	1011.38312	-4451.68701	291.93707	1021.85455	-4431.90381	342.19467	1070.15063	-4438.67188	297.37982	1073.55859	-4439.71729	112.81291	1067.53015	0.00000	0.00000	0.00000	-4406.56348	71.53488	1010.49213	0.00000	0.00000	0.00000	-4355.83545	108.24147	1241.66602	-4431.70752	69.47907	1212.23572
